<?xml version="1.0" encoding="UTF-8"?><svg id="Camada_1" xmlns="http://www.w3.org/2000/svg" viewBox="0 0 1080 275"><defs><style>.cls-1{fill:#26557d;}.cls-2{fill:#51b795;}</style></defs><g><path class="cls-2" d="M110.37,98.73c-.41,.41-.81,.82-1.15,1.19-1.26,1.33-2.87,2.2-4.66,2.52l-17.29,3.1-4.3-9.17c-.12-.26-.42-.39-.7-.3l-6.44,2.15c-.49,.16-.82,.61-.83,1.12l-.05,1.68c-.06,1.86-1,3.59-2.52,4.64-2.29,1.57-5.17,1.83-7.69,.71l-1.07-.48v13.03l-9.42,9.08,3.75,8.28,2.31,.06,15.43,8.61,6.7,2.31c2.45,.84,4.33,2.83,5.04,5.31l2.18,7.64,3.17,10.77c.19,.66,.72,1.16,1.38,1.32l4.44,1.09c.64,.14,1.23,.49,1.68,1.01l.38,.43,4.15,11.73-4.89,7.13c-.98,1.43-.71,3.34,.62,4.44l5.69,4.69c1.55-1.96,4.35-5.59,8.76-11.39,.41-.54,.66-1.2,.69-1.88l.53-9.65,13.94-2.69,10.59-8.4c1.31-2.34,3.86-11.12,5.68-18.7l.17-.71,11.21-12.88c.51-.59,.76-1.34,.7-2.12l-.53-6.95c-.05-.71-.45-1.36-1.06-1.73l-12.15-7.45c-2.2-.63-15.09-4.1-26.76-7.23-3.55-.95-5.75-4.48-5.1-8.04-.51-.86-1.4-2.33-2.6-4.28Z"/><path class="cls-2" d="M57.73,69.4h-2.43c-15.37,0-27.83,12.46-27.83,27.83v3.89l30.26-.14v-31.58Z"/><path class="cls-2" d="M154.63,69.4H63.68v30.33c.69,.08,1.37,.26,2.03,.55l1.46,.65c.61,.27,1.29,.22,1.85-.14l.04-1.62c.09-3.01,2.06-5.66,4.9-6.6l6.44-2.15c3.14-1.05,6.56,.42,7.96,3.41l2.36,5.03,12.79-2.29c.53-.1,1.01-.36,1.39-.76,.36-.38,.78-.81,1.2-1.25,1.29-1.33,3.08-1.97,4.92-1.77,1.84,.2,3.45,1.22,4.42,2.8q3.57,5.81,3.64,6.68c.06,.56-.06,1.01-.24,1.68-.15,.58,.19,1.17,.77,1.33,26.92,7.22,27.5,7.38,28.03,7.72l12.44,7.63c2.23,1.37,3.68,3.74,3.88,6.35l.52,6.94c.18,2.34-.6,4.7-2.14,6.48l-10.26,11.78c-.99,4.04-4.27,16.99-6.62,20.32l-.25,.35-12.46,9.89-10.82,2.08-.27,5.01c-.1,1.88-.76,3.66-1.9,5.16q-10.9,14.34-12.26,14.66h-.06c-.28,.07-.59,.1-.81,.11l-1.16,.07-8.67-7.14c-3.74-3.07-4.49-8.41-1.75-12.4l3.18-4.63-2.43-6.87-3.01-.74c-2.72-.65-4.9-2.73-5.69-5.42l-3.17-10.8-2.18-7.66c-.17-.62-.65-1.11-1.26-1.32l-7.2-2.48-14.62-8.15-4.57-.12-7.02-15.49,10.62-10.24v-9.46l-30.24,.14-.02-5.95v95.44c0,15.37,12.46,27.83,27.83,27.83h99.33c15.37,0,27.83-12.46,27.83-27.83V97.24c0-15.37-12.46-27.83-27.83-27.83Z"/></g><g><path class="cls-1" d="M281.93,152.28h-30.71l-5.43,14.09h-27.71l35.33-80.83h26.79l35.33,80.83h-28.17l-5.43-14.09Zm-7.51-19.63l-7.85-20.32-7.85,20.32h15.7Z"/><path class="cls-1" d="M395.67,131.84c2.62,3.39,3.93,7.47,3.93,12.24,0,7.08-2.93,12.57-8.78,16.45-5.85,3.89-14.32,5.83-25.4,5.83h-45.49V85.54h43.19c10.78,0,18.92,1.93,24.42,5.77,5.5,3.85,8.26,8.97,8.26,15.36,0,3.77-.94,7.16-2.83,10.16-1.89,3-4.68,5.43-8.37,7.27,4.77,1.77,8.47,4.35,11.09,7.74Zm-48.96-27.25v12.01h12.7c5.93,0,8.89-2,8.89-6.01s-2.96-6-8.89-6h-12.7Zm25.4,36.37c0-4.23-3-6.35-9.01-6.35h-16.4v12.7h16.4c6,0,9.01-2.12,9.01-6.35Z"/><path class="cls-1" d="M419.74,165.96c-6.35-1.5-11.57-3.52-15.65-6.06l8.78-19.86c3.85,2.23,8.16,4.02,12.93,5.37,4.77,1.35,9.35,2.02,13.74,2.02,3.77,0,6.47-.37,8.08-1.1,1.62-.73,2.42-1.83,2.42-3.29,0-1.69-1.06-2.96-3.18-3.81-2.12-.85-5.6-1.77-10.45-2.77-6.23-1.31-11.43-2.71-15.59-4.21-4.16-1.5-7.78-3.96-10.85-7.39-3.08-3.42-4.62-8.06-4.62-13.91,0-5.08,1.42-9.7,4.27-13.86,2.85-4.16,7.1-7.43,12.76-9.81,5.66-2.39,12.53-3.58,20.61-3.58,5.54,0,10.99,.6,16.34,1.79,5.35,1.19,10.06,2.94,14.14,5.25l-8.2,19.74c-7.93-4-15.43-6-22.52-6s-10.51,1.69-10.51,5.08c0,1.62,1.04,2.83,3.12,3.64,2.08,.81,5.5,1.67,10.28,2.6,6.16,1.15,11.35,2.48,15.59,3.98,4.23,1.5,7.91,3.95,11.03,7.33,3.12,3.39,4.68,8.01,4.68,13.86,0,5.08-1.43,9.68-4.27,13.8-2.85,4.12-7.1,7.39-12.76,9.81-5.66,2.42-12.53,3.64-20.61,3.64-6.7,0-13.22-.75-19.57-2.25Z"/><path class="cls-1" d="M501.44,106.67h-23.67v-21.13h74.59v21.13h-23.67v59.7h-27.25v-59.7Z"/><path class="cls-1" d="M610.44,152.28h-30.71l-5.43,14.09h-27.71l35.33-80.83h26.79l35.33,80.83h-28.17l-5.43-14.09Zm-7.51-19.63l-7.85-20.32-7.85,20.32h15.7Z"/><path class="cls-1" d="M683.07,146.04h-7.39v20.32h-27.25V85.54h38.91c7.47,0,13.97,1.23,19.51,3.7,5.54,2.46,9.82,6,12.82,10.62,3,4.62,4.5,10.01,4.5,16.17,0,5.77-1.31,10.82-3.93,15.13-2.62,4.31-6.39,7.74-11.32,10.28l16.97,24.94h-29.1l-13.74-20.32Zm10.85-37.01c-1.85-1.65-4.62-2.48-8.31-2.48h-9.93v18.94h9.93c3.7,0,6.47-.83,8.31-2.48,1.85-1.65,2.77-3.98,2.77-6.99s-.92-5.33-2.77-6.99Z"/><path class="cls-1" d="M750.85,106.67h-23.67v-21.13h74.59v21.13h-23.67v59.7h-27.25v-59.7Z"/><path class="cls-1" d="M820.28,158.17c-6.93-6.7-10.39-16.09-10.39-28.17v-44.46h27.25v43.65c0,5.93,1.06,10.24,3.18,12.93,2.12,2.7,5.18,4.04,9.18,4.04s7.06-1.35,9.18-4.04c2.12-2.69,3.18-7,3.18-12.93v-43.65h26.79v44.46c0,12.09-3.46,21.48-10.39,28.17-6.93,6.7-16.59,10.05-28.98,10.05s-22.05-3.35-28.98-10.05Z"/><path class="cls-1" d="M956.61,89.23c5.54,2.46,9.82,6,12.82,10.62,3,4.62,4.5,10.01,4.5,16.17s-1.5,11.55-4.5,16.17c-3,4.62-7.27,8.16-12.82,10.62-5.54,2.46-12.05,3.69-19.51,3.69h-11.66v19.86h-27.25V85.54h38.91c7.47,0,13.97,1.23,19.51,3.7Zm-12.93,33.78c1.85-1.65,2.77-3.98,2.77-6.99s-.92-5.33-2.77-6.99c-1.85-1.65-4.62-2.48-8.31-2.48h-9.93v18.94h9.93c3.7,0,6.47-.83,8.31-2.48Z"/><path class="cls-1" d="M994.55,165.96c-6.35-1.5-11.57-3.52-15.65-6.06l8.78-19.86c3.85,2.23,8.16,4.02,12.93,5.37,4.77,1.35,9.35,2.02,13.74,2.02,3.77,0,6.47-.37,8.08-1.1,1.62-.73,2.42-1.83,2.42-3.29,0-1.69-1.06-2.96-3.18-3.81-2.12-.85-5.6-1.77-10.45-2.77-6.23-1.31-11.43-2.71-15.59-4.21-4.16-1.5-7.78-3.96-10.85-7.39-3.08-3.42-4.62-8.06-4.62-13.91,0-5.08,1.42-9.7,4.27-13.86,2.85-4.16,7.1-7.43,12.76-9.81,5.66-2.39,12.53-3.58,20.61-3.58,5.54,0,10.99,.6,16.34,1.79,5.35,1.19,10.06,2.94,14.15,5.25l-8.2,19.74c-7.93-4-15.43-6-22.52-6s-10.51,1.69-10.51,5.08c0,1.62,1.04,2.83,3.12,3.64,2.08,.81,5.5,1.67,10.28,2.6,6.16,1.15,11.35,2.48,15.59,3.98,4.23,1.5,7.91,3.95,11.03,7.33,3.12,3.39,4.68,8.01,4.68,13.86,0,5.08-1.42,9.68-4.27,13.8-2.85,4.12-7.1,7.39-12.76,9.81-5.66,2.42-12.53,3.64-20.61,3.64-6.7,0-13.22-.75-19.57-2.25Z"/><rect class="cls-1" x="294.93" y="147.87" width="21.72" height="18.29"/><rect class="cls-1" x="374.2" y="130.24" width="33.15" height="22.29" transform="translate(99.97 -155.47) rotate(25.7)"/><polygon class="cls-1" points="567.03 107.85 477.85 107.85 477.85 84.99 577.32 84.99 567.03 107.85"/></g><g><path class="cls-2" d="M362.15,216.39c-.2,0-.37-.07-.52-.22-.15-.15-.22-.32-.22-.52,0-.12,.02-.26,.07-.41l9.41-24.14c.1-.25,.23-.43,.39-.56,.16-.12,.39-.19,.69-.19h1.27c.3,0,.53,.06,.69,.19,.16,.12,.29,.31,.39,.56l9.41,24.14c.05,.15,.07,.29,.07,.41,0,.2-.07,.37-.22,.52-.15,.15-.32,.22-.52,.22h-.74c-.25,0-.43-.07-.56-.21-.12-.14-.21-.25-.26-.35l-2.31-5.95h-13.17l-2.31,5.95c-.02,.1-.11,.22-.24,.35-.14,.14-.33,.21-.58,.21h-.74Zm4.76-8.74h11.38l-5.69-14.66-5.69,14.66Z"/><path class="cls-2" d="M395.63,216.76c-2.01,0-3.71-.32-5.12-.97-1.4-.64-2.47-1.47-3.22-2.49-.74-1.02-1.14-2.1-1.19-3.24,0-.2,.07-.37,.22-.52,.15-.15,.33-.22,.56-.22h.74c.25,0,.44,.07,.58,.22,.14,.15,.22,.32,.24,.52,.1,.69,.41,1.38,.93,2.06,.52,.68,1.29,1.25,2.31,1.71s2.33,.69,3.94,.69c2.43,0,4.2-.44,5.32-1.32,1.12-.88,1.67-2.06,1.67-3.55,0-.99-.29-1.79-.87-2.4-.58-.61-1.47-1.15-2.66-1.64-1.19-.48-2.72-1.02-4.58-1.62-1.76-.57-3.21-1.16-4.35-1.77-1.14-.61-1.98-1.34-2.51-2.21-.53-.87-.8-1.98-.8-3.35,0-1.26,.33-2.4,1-3.4,.67-1,1.64-1.8,2.92-2.4,1.28-.59,2.83-.89,4.67-.89,1.46,0,2.74,.2,3.83,.59,1.09,.4,2,.92,2.72,1.58,.72,.66,1.26,1.36,1.64,2.12s.57,1.49,.6,2.21c0,.17-.06,.34-.19,.5-.12,.16-.32,.24-.6,.24h-.74c-.12,0-.28-.05-.46-.15-.19-.1-.3-.3-.35-.6-.15-1.24-.8-2.26-1.95-3.07s-2.65-1.21-4.48-1.21-3.34,.36-4.5,1.08c-1.17,.72-1.75,1.85-1.75,3.39,0,.99,.26,1.8,.78,2.44,.52,.63,1.34,1.19,2.46,1.67,1.12,.48,2.55,1.01,4.32,1.58,1.86,.6,3.4,1.19,4.61,1.79,1.21,.59,2.12,1.32,2.72,2.18,.6,.86,.89,1.97,.89,3.33,0,1.51-.38,2.8-1.13,3.85-.76,1.05-1.83,1.86-3.22,2.42-1.39,.56-3.05,.84-4.99,.84Z"/><path class="cls-2" d="M418.14,216.76c-2.01,0-3.71-.32-5.12-.97-1.4-.64-2.47-1.47-3.22-2.49-.74-1.02-1.14-2.1-1.19-3.24,0-.2,.07-.37,.22-.52,.15-.15,.33-.22,.56-.22h.74c.25,0,.44,.07,.58,.22,.14,.15,.22,.32,.24,.52,.1,.69,.41,1.38,.93,2.06,.52,.68,1.29,1.25,2.31,1.71s2.33,.69,3.94,.69c2.43,0,4.2-.44,5.32-1.32,1.12-.88,1.67-2.06,1.67-3.55,0-.99-.29-1.79-.87-2.4-.58-.61-1.47-1.15-2.66-1.64-1.19-.48-2.72-1.02-4.58-1.62-1.76-.57-3.21-1.16-4.35-1.77-1.14-.61-1.98-1.34-2.51-2.21-.53-.87-.8-1.98-.8-3.35,0-1.26,.33-2.4,1-3.4,.67-1,1.64-1.8,2.92-2.4,1.28-.59,2.83-.89,4.67-.89,1.46,0,2.74,.2,3.83,.59,1.09,.4,2,.92,2.72,1.58,.72,.66,1.26,1.36,1.64,2.12s.57,1.49,.6,2.21c0,.17-.06,.34-.19,.5-.12,.16-.32,.24-.6,.24h-.74c-.12,0-.28-.05-.46-.15-.19-.1-.3-.3-.35-.6-.15-1.24-.8-2.26-1.95-3.07s-2.65-1.21-4.48-1.21-3.34,.36-4.5,1.08c-1.17,.72-1.75,1.85-1.75,3.39,0,.99,.26,1.8,.78,2.44,.52,.63,1.34,1.19,2.46,1.67,1.12,.48,2.55,1.01,4.32,1.58,1.86,.6,3.4,1.19,4.61,1.79,1.21,.59,2.12,1.32,2.72,2.18,.6,.86,.89,1.97,.89,3.33,0,1.51-.38,2.8-1.13,3.85-.76,1.05-1.83,1.86-3.22,2.42-1.39,.56-3.05,.84-4.99,.84Z"/><path class="cls-2" d="M441.65,216.76c-2.06,0-3.81-.37-5.25-1.1-1.44-.73-2.54-1.86-3.31-3.38-.77-1.53-1.19-3.45-1.26-5.79-.03-1.12-.04-2.16-.04-3.12s.01-2.01,.04-3.12c.07-2.31,.52-4.22,1.34-5.75,.82-1.52,1.95-2.66,3.4-3.4,1.45-.74,3.14-1.12,5.08-1.12s3.63,.37,5.08,1.12c1.45,.74,2.59,1.88,3.42,3.4,.83,1.53,1.27,3.44,1.32,5.75,.05,1.12,.07,2.16,.07,3.12s-.02,2.01-.07,3.12c-.05,2.33-.46,4.26-1.25,5.79-.78,1.52-1.89,2.65-3.33,3.38-1.44,.73-3.19,1.1-5.25,1.1Zm0-2.23c2.13,0,3.89-.64,5.26-1.93,1.38-1.29,2.11-3.38,2.21-6.29,.05-1.12,.07-2.09,.07-2.94s-.02-1.82-.07-2.94c-.05-1.93-.4-3.51-1.06-4.72-.66-1.21-1.54-2.1-2.64-2.66-1.1-.56-2.36-.84-3.78-.84s-2.64,.28-3.74,.84c-1.1,.56-1.98,1.44-2.64,2.66-.66,1.22-1.02,2.79-1.1,4.72-.03,1.12-.04,2.1-.04,2.94s.01,1.82,.04,2.94c.1,2.9,.84,5,2.23,6.29,1.39,1.29,3.14,1.93,5.25,1.93Z"/><path class="cls-2" d="M466.27,216.76c-2.26,0-4.1-.44-5.52-1.32-1.43-.88-2.49-2.08-3.18-3.59-.69-1.51-1.08-3.24-1.15-5.17-.02-1.02-.04-2.11-.04-3.27s.01-2.28,.04-3.35c.07-1.93,.46-3.67,1.15-5.19s1.75-2.72,3.18-3.59c1.43-.87,3.27-1.3,5.52-1.3,1.76,0,3.26,.25,4.5,.74s2.25,1.15,3.03,1.95,1.36,1.67,1.75,2.6c.38,.93,.6,1.84,.65,2.73,.02,.22-.04,.4-.2,.54-.16,.14-.35,.2-.58,.2h-.74c-.2,0-.37-.06-.52-.17-.15-.11-.25-.32-.3-.61-.47-2.21-1.36-3.72-2.66-4.54-1.3-.82-2.95-1.23-4.93-1.23-2.26,0-4.05,.64-5.38,1.92-1.33,1.28-2.04,3.32-2.14,6.12-.07,2.03-.07,4.12,0,6.25,.1,2.8,.81,4.84,2.14,6.12,1.33,1.28,3.12,1.92,5.38,1.92,1.98,0,3.63-.41,4.93-1.23,1.3-.82,2.19-2.33,2.66-4.54,.05-.3,.15-.5,.3-.61,.15-.11,.32-.17,.52-.17h.74c.22,0,.42,.07,.58,.2,.16,.14,.23,.32,.2,.54-.05,.89-.27,1.8-.65,2.73-.38,.93-.97,1.8-1.75,2.6-.78,.81-1.79,1.46-3.03,1.95s-2.74,.74-4.5,.74Z"/><path class="cls-2" d="M482.49,216.39c-.25,0-.45-.07-.6-.22-.15-.15-.22-.35-.22-.59v-24.4c0-.25,.07-.45,.22-.6,.15-.15,.35-.22,.6-.22h.71c.25,0,.45,.07,.6,.22,.15,.15,.22,.35,.22,.6v24.4c0,.25-.07,.45-.22,.59-.15,.15-.35,.22-.6,.22h-.71Z"/><path class="cls-2" d="M489.15,216.39c-.2,0-.37-.07-.52-.22-.15-.15-.22-.32-.22-.52,0-.12,.02-.26,.07-.41l9.41-24.14c.1-.25,.23-.43,.39-.56,.16-.12,.39-.19,.69-.19h1.27c.3,0,.53,.06,.69,.19,.16,.12,.29,.31,.39,.56l9.41,24.14c.05,.15,.07,.29,.07,.41,0,.2-.07,.37-.22,.52-.15,.15-.32,.22-.52,.22h-.74c-.25,0-.43-.07-.56-.21-.12-.14-.21-.25-.26-.35l-2.31-5.95h-13.17l-2.31,5.95c-.02,.1-.11,.22-.24,.35-.14,.14-.33,.21-.58,.21h-.74Zm4.76-8.74h11.38l-5.69-14.66-5.69,14.66Z"/><path class="cls-2" d="M523.45,224.58c-.69-.03-1.31-.16-1.84-.39-.53-.24-.92-.5-1.15-.8-.24-.3-.25-.53-.06-.71l.52-.48c.22-.2,.42-.24,.6-.11,.17,.12,.4,.29,.69,.48,.28,.2,.7,.3,1.25,.3,.42,0,.79-.13,1.12-.39,.32-.26,.48-.63,.48-1.1,0-.45-.16-.79-.48-1.04-.32-.25-.69-.37-1.12-.37-.4,0-.73,.06-.99,.17-.26,.11-.48,.19-.67,.22s-.38-.04-.58-.24l-.6-.63c-.12-.15-.14-.33-.06-.54s.17-.4,.24-.58l.74-1.75c-1.79-.27-3.24-.86-4.37-1.77-1.13-.91-1.97-2.06-2.53-3.46-.56-1.4-.87-2.97-.95-4.71-.02-1.02-.04-2.11-.04-3.27s.01-2.28,.04-3.35c.07-1.93,.46-3.67,1.15-5.19s1.75-2.72,3.18-3.59c1.43-.87,3.27-1.3,5.52-1.3,1.76,0,3.26,.25,4.5,.74s2.25,1.15,3.03,1.95,1.36,1.67,1.75,2.6c.38,.93,.6,1.84,.65,2.73,.02,.22-.04,.4-.2,.54-.16,.14-.35,.2-.58,.2h-.74c-.2,0-.37-.06-.52-.17-.15-.11-.25-.32-.3-.61-.47-2.21-1.36-3.72-2.66-4.54-1.3-.82-2.95-1.23-4.93-1.23-2.26,0-4.05,.64-5.38,1.92-1.33,1.28-2.04,3.32-2.14,6.12-.07,2.03-.07,4.12,0,6.25,.1,2.8,.81,4.84,2.14,6.12,1.33,1.28,3.12,1.92,5.38,1.92,1.98,0,3.63-.41,4.93-1.23,1.3-.82,2.19-2.33,2.66-4.54,.05-.3,.15-.5,.3-.61,.15-.11,.32-.17,.52-.17h.74c.22,0,.42,.07,.58,.2,.16,.14,.23,.32,.2,.54-.05,.89-.27,1.8-.65,2.73-.38,.93-.97,1.8-1.75,2.6-.78,.81-1.79,1.46-3.03,1.95s-2.74,.74-4.5,.74l-.86,1.79c.15-.1,.35-.17,.61-.22,.26-.05,.53-.07,.8-.07,.82,0,1.49,.28,2.03,.86,.53,.57,.8,1.3,.8,2.19s-.29,1.67-.87,2.33c-.58,.66-1.46,.97-2.62,.95Z"/><path class="cls-2" d="M536.88,216.39c-.2,0-.37-.07-.52-.22-.15-.15-.22-.32-.22-.52,0-.12,.02-.26,.07-.41l9.41-24.14c.1-.25,.23-.43,.39-.56,.16-.12,.39-.19,.69-.19h1.26c.3,0,.53,.06,.69,.19,.16,.12,.29,.31,.39,.56l9.41,24.14c.05,.15,.07,.29,.07,.41,0,.2-.07,.37-.22,.52s-.32,.22-.52,.22h-.74c-.25,0-.43-.07-.56-.21-.12-.14-.21-.25-.26-.35l-2.31-5.95h-13.17l-2.31,5.95c-.02,.1-.11,.22-.24,.35-.14,.14-.33,.21-.58,.21h-.74Zm4.76-8.74h11.38l-5.69-14.66-5.69,14.66Zm7.51-18.97c-.57,0-1.06-.11-1.47-.32s-.78-.42-1.12-.63c-.33-.21-.68-.32-1.02-.32-.27,0-.47,.09-.59,.26-.12,.17-.24,.35-.35,.54-.11,.19-.3,.28-.58,.28h-.74c-.17,0-.32-.06-.43-.19-.11-.12-.17-.26-.17-.41,0-.35,.07-.69,.21-1.04,.13-.35,.33-.66,.59-.95s.56-.51,.89-.67,.69-.24,1.06-.24c.59,0,1.1,.11,1.51,.32,.41,.21,.78,.42,1.12,.63,.33,.21,.67,.32,1.02,.32,.3,0,.5-.09,.61-.28,.11-.19,.22-.37,.33-.56,.11-.19,.3-.28,.58-.28h.74c.2,0,.35,.06,.45,.19,.1,.12,.15,.26,.15,.41,0,.35-.07,.69-.22,1.04-.15,.35-.35,.66-.61,.95-.26,.29-.56,.52-.89,.69-.33,.17-.69,.26-1.06,.26Z"/><path class="cls-2" d="M571.29,216.76c-2.06,0-3.81-.37-5.25-1.1s-2.54-1.86-3.31-3.38c-.77-1.53-1.19-3.45-1.27-5.79-.02-1.12-.04-2.16-.04-3.12s.01-2.01,.04-3.12c.08-2.31,.52-4.22,1.34-5.75,.82-1.52,1.95-2.66,3.4-3.4,1.45-.74,3.14-1.12,5.08-1.12s3.63,.37,5.08,1.12,2.59,1.88,3.42,3.4c.83,1.53,1.27,3.44,1.32,5.75,.05,1.12,.07,2.16,.07,3.12s-.02,2.01-.07,3.12c-.05,2.33-.46,4.26-1.25,5.79-.78,1.52-1.89,2.65-3.33,3.38-1.44,.73-3.19,1.1-5.25,1.1Zm0-2.23c2.13,0,3.89-.64,5.26-1.93,1.38-1.29,2.11-3.38,2.21-6.29,.05-1.12,.07-2.09,.07-2.94s-.02-1.82-.07-2.94c-.05-1.93-.4-3.51-1.06-4.72-.66-1.21-1.54-2.1-2.64-2.66-1.1-.56-2.36-.84-3.78-.84s-2.63,.28-3.74,.84c-1.1,.56-1.98,1.44-2.64,2.66-.66,1.22-1.02,2.79-1.1,4.72-.02,1.12-.04,2.1-.04,2.94s.01,1.82,.04,2.94c.1,2.9,.84,5,2.23,6.29,1.39,1.29,3.14,1.93,5.25,1.93Z"/><path class="cls-2" d="M597.52,216.39c-.25,0-.45-.07-.6-.22s-.22-.35-.22-.59v-24.37c0-.27,.07-.48,.22-.63,.15-.15,.35-.22,.6-.22h9.71c1.74,0,3.16,.31,4.26,.93,1.1,.62,1.92,1.43,2.44,2.44,.52,1,.78,2.1,.78,3.29,0,1.07-.17,1.98-.5,2.73s-.76,1.37-1.26,1.84c-.51,.47-1.01,.83-1.51,1.08,.99,.5,1.87,1.29,2.64,2.38,.77,1.09,1.15,2.42,1.15,3.98,0,1.24-.29,2.42-.87,3.55-.58,1.13-1.45,2.05-2.6,2.75-1.15,.71-2.57,1.06-4.26,1.06h-9.97Zm1.53-14.73h7.7c1.84,0,3.23-.41,4.19-1.23,.95-.82,1.43-1.96,1.43-3.42s-.48-2.57-1.43-3.31c-.96-.74-2.35-1.12-4.19-1.12h-7.7v9.08Zm0,12.5h8.07c1.83,0,3.26-.48,4.26-1.45,1-.97,1.51-2.2,1.51-3.68s-.5-2.75-1.51-3.7c-1-.95-2.42-1.43-4.26-1.43h-8.07v10.27Z"/><path class="cls-2" d="M621.81,216.39c-.25,0-.45-.07-.6-.22s-.22-.35-.22-.59v-24.37c0-.27,.07-.48,.22-.63,.15-.15,.35-.22,.6-.22h8.67c2.6,0,4.68,.62,6.23,1.86,1.55,1.24,2.33,3.12,2.33,5.65,0,1.98-.5,3.57-1.49,4.76-.99,1.19-2.37,2-4.13,2.42l5.99,10.19c.07,.15,.11,.29,.11,.41,0,.2-.07,.37-.22,.52-.15,.15-.32,.22-.52,.22h-.45c-.4,0-.69-.11-.89-.32-.2-.21-.37-.44-.52-.69l-5.92-10.01h-7.66v10.19c0,.25-.07,.45-.22,.59-.15,.15-.36,.22-.63,.22h-.67Zm1.53-13.24h6.96c2.16,0,3.76-.44,4.82-1.32,1.05-.88,1.58-2.2,1.58-3.96s-.53-3.08-1.58-3.96c-1.05-.88-2.66-1.32-4.82-1.32h-6.96v10.56Z"/><path class="cls-2" d="M642.94,216.39c-.2,0-.37-.07-.52-.22-.15-.15-.22-.32-.22-.52,0-.12,.02-.26,.07-.41l9.41-24.14c.1-.25,.23-.43,.39-.56,.16-.12,.39-.19,.69-.19h1.26c.3,0,.53,.06,.69,.19,.16,.12,.29,.31,.39,.56l9.41,24.14c.05,.15,.07,.29,.07,.41,0,.2-.07,.37-.22,.52s-.32,.22-.52,.22h-.74c-.25,0-.43-.07-.56-.21-.12-.14-.21-.25-.26-.35l-2.31-5.95h-13.17l-2.31,5.95c-.02,.1-.11,.22-.24,.35s-.33,.21-.58,.21h-.74Zm4.76-8.74h11.38l-5.69-14.66-5.69,14.66Z"/><path class="cls-2" d="M676.42,216.76c-2.01,0-3.71-.32-5.12-.97-1.4-.64-2.47-1.47-3.22-2.49-.74-1.02-1.14-2.1-1.19-3.24,0-.2,.07-.37,.22-.52,.15-.15,.33-.22,.56-.22h.74c.25,0,.44,.07,.58,.22,.14,.15,.22,.32,.24,.52,.1,.69,.41,1.38,.93,2.06,.52,.68,1.29,1.25,2.31,1.71,1.02,.46,2.33,.69,3.94,.69,2.43,0,4.2-.44,5.32-1.32,1.12-.88,1.67-2.06,1.67-3.55,0-.99-.29-1.79-.87-2.4s-1.47-1.15-2.66-1.64c-1.19-.48-2.72-1.02-4.58-1.62-1.76-.57-3.21-1.16-4.35-1.77-1.14-.61-1.98-1.34-2.51-2.21-.53-.87-.8-1.98-.8-3.35,0-1.26,.33-2.4,1-3.4,.67-1,1.64-1.8,2.92-2.4,1.28-.59,2.83-.89,4.67-.89,1.46,0,2.74,.2,3.83,.59,1.09,.4,2,.92,2.72,1.58,.72,.66,1.26,1.36,1.64,2.12s.57,1.49,.6,2.21c0,.17-.06,.34-.19,.5s-.32,.24-.59,.24h-.74c-.12,0-.28-.05-.47-.15-.19-.1-.3-.3-.35-.6-.15-1.24-.8-2.26-1.95-3.07s-2.65-1.21-4.48-1.21-3.34,.36-4.5,1.08c-1.17,.72-1.75,1.85-1.75,3.39,0,.99,.26,1.8,.78,2.44,.52,.63,1.34,1.19,2.46,1.67,1.12,.48,2.55,1.01,4.32,1.58,1.86,.6,3.4,1.19,4.61,1.79,1.21,.59,2.12,1.32,2.72,2.18,.6,.86,.89,1.97,.89,3.33,0,1.51-.38,2.8-1.13,3.85-.76,1.05-1.83,1.86-3.22,2.42-1.39,.56-3.05,.84-4.98,.84Z"/><path class="cls-2" d="M691.94,216.39c-.25,0-.45-.07-.6-.22s-.22-.35-.22-.59v-24.4c0-.25,.07-.45,.22-.6,.15-.15,.35-.22,.6-.22h.71c.25,0,.45,.07,.59,.22s.22,.35,.22,.6v24.4c0,.25-.07,.45-.22,.59-.15,.15-.35,.22-.59,.22h-.71Z"/><path class="cls-2" d="M701.27,216.39c-.25,0-.45-.07-.6-.22s-.22-.35-.22-.59v-24.4c0-.25,.07-.45,.22-.6,.15-.15,.35-.22,.6-.22h.71c.25,0,.45,.07,.59,.22s.22,.35,.22,.6v22.99h12.83c.27,0,.48,.08,.63,.22s.22,.36,.22,.63v.56c0,.25-.08,.45-.22,.59-.15,.15-.36,.22-.63,.22h-14.36Z"/><path class="cls-2" d="M721.66,216.39c-.25,0-.45-.07-.6-.22s-.22-.35-.22-.59v-24.37c0-.27,.07-.48,.22-.63,.15-.15,.35-.22,.6-.22h14.51c.27,0,.48,.07,.63,.22s.22,.36,.22,.63v.56c0,.25-.07,.45-.22,.6-.15,.15-.36,.22-.63,.22h-12.98v9.49h12.17c.27,0,.48,.07,.63,.22s.22,.36,.22,.63v.56c0,.25-.07,.45-.22,.6s-.36,.22-.63,.22h-12.17v9.86h13.28c.27,0,.48,.08,.63,.22,.15,.15,.22,.36,.22,.63v.56c0,.25-.07,.45-.22,.59-.15,.15-.36,.22-.63,.22h-14.81Z"/><path class="cls-2" d="M743.68,216.39c-.25,0-.45-.07-.6-.22s-.22-.35-.22-.59v-24.4c0-.25,.07-.45,.22-.6,.15-.15,.35-.22,.6-.22h.71c.25,0,.45,.07,.59,.22s.22,.35,.22,.6v24.4c0,.25-.07,.45-.22,.59-.15,.15-.35,.22-.59,.22h-.71Z"/><path class="cls-2" d="M753.02,216.39c-.25,0-.45-.07-.6-.22s-.22-.35-.22-.59v-24.37c0-.27,.07-.48,.22-.63,.15-.15,.35-.22,.6-.22h8.67c2.6,0,4.68,.62,6.23,1.86,1.55,1.24,2.33,3.12,2.33,5.65,0,1.98-.5,3.57-1.49,4.76-.99,1.19-2.37,2-4.13,2.42l5.99,10.19c.07,.15,.11,.29,.11,.41,0,.2-.07,.37-.22,.52-.15,.15-.32,.22-.52,.22h-.45c-.4,0-.69-.11-.89-.32-.2-.21-.37-.44-.52-.69l-5.92-10.01h-7.66v10.19c0,.25-.07,.45-.22,.59-.15,.15-.36,.22-.63,.22h-.67Zm1.53-13.24h6.96c2.16,0,3.76-.44,4.82-1.32,1.05-.88,1.58-2.2,1.58-3.96s-.53-3.08-1.58-3.96c-1.05-.88-2.66-1.32-4.82-1.32h-6.96v10.56Z"/><path class="cls-2" d="M774.15,216.39c-.2,0-.37-.07-.52-.22-.15-.15-.22-.32-.22-.52,0-.12,.02-.26,.07-.41l9.41-24.14c.1-.25,.23-.43,.39-.56,.16-.12,.39-.19,.69-.19h1.26c.3,0,.53,.06,.69,.19,.16,.12,.29,.31,.39,.56l9.41,24.14c.05,.15,.07,.29,.07,.41,0,.2-.07,.37-.22,.52s-.32,.22-.52,.22h-.74c-.25,0-.43-.07-.56-.21-.12-.14-.21-.25-.26-.35l-2.31-5.95h-13.17l-2.31,5.95c-.02,.1-.11,.22-.24,.35s-.33,.21-.58,.21h-.74Zm4.76-8.74h11.38l-5.69-14.66-5.69,14.66Z"/><path class="cls-2" d="M809.6,216.39c-.25,0-.45-.07-.6-.22s-.22-.35-.22-.59v-24.37c0-.27,.07-.48,.22-.63,.15-.15,.35-.22,.6-.22h7.92c2.63,0,4.69,.38,6.18,1.15s2.55,1.9,3.18,3.4c.63,1.5,.96,3.33,.99,5.49,.02,1.12,.04,2.1,.04,2.96s-.01,1.84-.04,2.96c-.05,2.28-.38,4.17-1,5.66-.62,1.49-1.66,2.6-3.12,3.33-1.46,.73-3.47,1.1-6.03,1.1h-8.11Zm1.53-2.23h6.4c1.98,0,3.55-.27,4.71-.8,1.15-.53,1.98-1.39,2.49-2.57,.51-1.18,.78-2.73,.8-4.67,.02-.74,.04-1.4,.04-1.95v-1.66c0-.55-.01-1.19-.04-1.93-.05-2.73-.68-4.74-1.9-6.05-1.22-1.3-3.31-1.95-6.29-1.95h-6.21v21.58Z"/><path class="cls-2" d="M834.79,216.39c-.25,0-.45-.07-.6-.22s-.22-.35-.22-.59v-24.37c0-.27,.07-.48,.22-.63,.15-.15,.35-.22,.6-.22h14.51c.27,0,.48,.07,.63,.22s.22,.36,.22,.63v.56c0,.25-.07,.45-.22,.6-.15,.15-.36,.22-.63,.22h-12.98v9.49h12.17c.27,0,.48,.07,.63,.22s.22,.36,.22,.63v.56c0,.25-.07,.45-.22,.6s-.36,.22-.63,.22h-12.17v9.86h13.28c.27,0,.48,.08,.63,.22,.15,.15,.22,.36,.22,.63v.56c0,.25-.07,.45-.22,.59-.15,.15-.36,.22-.63,.22h-14.81Z"/><path class="cls-2" d="M873.4,216.76c-2.01,0-3.71-.32-5.12-.97-1.4-.64-2.47-1.47-3.22-2.49-.74-1.02-1.14-2.1-1.19-3.24,0-.2,.07-.37,.22-.52,.15-.15,.33-.22,.56-.22h.74c.25,0,.44,.07,.58,.22,.14,.15,.22,.32,.24,.52,.1,.69,.41,1.38,.93,2.06,.52,.68,1.29,1.25,2.31,1.71,1.02,.46,2.33,.69,3.94,.69,2.43,0,4.2-.44,5.32-1.32,1.12-.88,1.67-2.06,1.67-3.55,0-.99-.29-1.79-.87-2.4s-1.47-1.15-2.66-1.64c-1.19-.48-2.72-1.02-4.58-1.62-1.76-.57-3.21-1.16-4.35-1.77-1.14-.61-1.98-1.34-2.51-2.21-.53-.87-.8-1.98-.8-3.35,0-1.26,.33-2.4,1-3.4,.67-1,1.64-1.8,2.92-2.4,1.28-.59,2.83-.89,4.67-.89,1.46,0,2.74,.2,3.83,.59,1.09,.4,2,.92,2.72,1.58,.72,.66,1.26,1.36,1.64,2.12s.57,1.49,.6,2.21c0,.17-.06,.34-.19,.5s-.32,.24-.59,.24h-.74c-.12,0-.28-.05-.47-.15-.19-.1-.3-.3-.35-.6-.15-1.24-.8-2.26-1.95-3.07s-2.65-1.21-4.48-1.21-3.34,.36-4.5,1.08c-1.17,.72-1.75,1.85-1.75,3.39,0,.99,.26,1.8,.78,2.44,.52,.63,1.34,1.19,2.46,1.67,1.12,.48,2.55,1.01,4.32,1.58,1.86,.6,3.4,1.19,4.61,1.79,1.21,.59,2.12,1.32,2.72,2.18,.6,.86,.89,1.97,.89,3.33,0,1.51-.38,2.8-1.13,3.85-.76,1.05-1.83,1.86-3.22,2.42-1.39,.56-3.05,.84-4.98,.84Z"/><path class="cls-2" d="M894.31,216.39c-.25,0-.45-.07-.59-.22-.15-.15-.22-.35-.22-.59v-22.99h-7.37c-.25,0-.45-.08-.6-.22s-.22-.35-.22-.6v-.56c0-.27,.07-.48,.22-.63,.15-.15,.35-.22,.6-.22h17.04c.27,0,.48,.07,.63,.22,.15,.15,.22,.36,.22,.63v.56c0,.25-.07,.45-.22,.6-.15,.15-.36,.22-.63,.22h-7.33v22.99c0,.25-.07,.45-.22,.59s-.36,.22-.63,.22h-.67Z"/><path class="cls-2" d="M903.87,216.39c-.2,0-.37-.07-.52-.22-.15-.15-.22-.32-.22-.52,0-.12,.02-.26,.07-.41l9.41-24.14c.1-.25,.23-.43,.39-.56,.16-.12,.39-.19,.69-.19h1.26c.3,0,.53,.06,.69,.19,.16,.12,.29,.31,.39,.56l9.41,24.14c.05,.15,.07,.29,.07,.41,0,.2-.07,.37-.22,.52s-.32,.22-.52,.22h-.74c-.25,0-.43-.07-.56-.21-.12-.14-.21-.25-.26-.35l-2.31-5.95h-13.17l-2.31,5.95c-.02,.1-.11,.22-.24,.35s-.33,.21-.58,.21h-.74Zm4.76-8.74h11.38l-5.69-14.66-5.69,14.66Z"/><path class="cls-2" d="M930.73,216.39c-.25,0-.45-.07-.6-.22s-.22-.35-.22-.59v-24.37c0-.27,.07-.48,.22-.63,.15-.15,.35-.22,.6-.22h8.67c2.6,0,4.68,.62,6.23,1.86,1.55,1.24,2.33,3.12,2.33,5.65,0,1.98-.5,3.57-1.49,4.76-.99,1.19-2.37,2-4.13,2.42l5.99,10.19c.07,.15,.11,.29,.11,.41,0,.2-.07,.37-.22,.52-.15,.15-.32,.22-.52,.22h-.45c-.4,0-.69-.11-.89-.32-.2-.21-.37-.44-.52-.69l-5.92-10.01h-7.66v10.19c0,.25-.07,.45-.22,.59-.15,.15-.36,.22-.63,.22h-.67Zm1.53-13.24h6.96c2.16,0,3.76-.44,4.82-1.32,1.05-.88,1.58-2.2,1.58-3.96s-.53-3.08-1.58-3.96c-1.05-.88-2.66-1.32-4.82-1.32h-6.96v10.56Z"/><path class="cls-2" d="M959.89,216.39c-.25,0-.45-.07-.59-.22-.15-.15-.22-.35-.22-.59v-22.99h-7.37c-.25,0-.45-.08-.6-.22s-.22-.35-.22-.6v-.56c0-.27,.07-.48,.22-.63,.15-.15,.35-.22,.6-.22h17.04c.27,0,.48,.07,.63,.22,.15,.15,.22,.36,.22,.63v.56c0,.25-.07,.45-.22,.6-.15,.15-.36,.22-.63,.22h-7.33v22.99c0,.25-.07,.45-.22,.59s-.36,.22-.63,.22h-.67Z"/><path class="cls-2" d="M983.48,216.76c-2.01,0-3.73-.37-5.15-1.12-1.43-.74-2.52-1.88-3.29-3.42-.77-1.54-1.15-3.51-1.15-5.92v-15.1c0-.27,.08-.48,.22-.63,.15-.15,.35-.22,.59-.22h.67c.27,0,.48,.07,.63,.22,.15,.15,.22,.36,.22,.63v15.22c0,2.78,.65,4.82,1.95,6.14,1.3,1.32,3.07,1.97,5.3,1.97s3.96-.66,5.26-1.97c1.3-1.31,1.95-3.36,1.95-6.14v-15.22c0-.27,.08-.48,.24-.63,.16-.15,.37-.22,.61-.22h.67c.25,0,.45,.07,.59,.22s.22,.36,.22,.63v15.1c0,2.41-.38,4.38-1.13,5.92-.76,1.54-1.84,2.68-3.25,3.42-1.41,.74-3.14,1.12-5.17,1.12Z"/><path class="cls-2" d="M1000.63,216.39c-.25,0-.45-.07-.6-.22s-.22-.35-.22-.59v-24.37c0-.27,.07-.48,.22-.63,.15-.15,.35-.22,.6-.22h9.04c1.74,0,3.24,.29,4.52,.87,1.28,.58,2.27,1.45,2.98,2.59s1.06,2.55,1.06,4.24-.35,3.1-1.06,4.24c-.71,1.14-1.7,2-2.98,2.59s-2.78,.87-4.52,.87h-7.51v9.82c0,.25-.07,.45-.22,.59-.15,.15-.36,.22-.63,.22h-.67Zm1.53-12.87h7.33c2.16,0,3.76-.47,4.82-1.41,1.05-.94,1.58-2.29,1.58-4.06s-.53-3.11-1.58-4.05c-1.05-.94-2.66-1.41-4.82-1.41h-7.33v10.94Z"/><path class="cls-2" d="M1030.99,216.76c-2.01,0-3.71-.32-5.12-.97-1.4-.64-2.47-1.47-3.22-2.49-.74-1.02-1.14-2.1-1.19-3.24,0-.2,.07-.37,.22-.52,.15-.15,.33-.22,.56-.22h.74c.25,0,.44,.07,.58,.22,.14,.15,.22,.32,.24,.52,.1,.69,.41,1.38,.93,2.06,.52,.68,1.29,1.25,2.31,1.71,1.02,.46,2.33,.69,3.94,.69,2.43,0,4.2-.44,5.32-1.32,1.12-.88,1.67-2.06,1.67-3.55,0-.99-.29-1.79-.87-2.4s-1.47-1.15-2.66-1.64c-1.19-.48-2.72-1.02-4.58-1.62-1.76-.57-3.21-1.16-4.35-1.77-1.14-.61-1.98-1.34-2.51-2.21-.53-.87-.8-1.98-.8-3.35,0-1.26,.33-2.4,1-3.4,.67-1,1.64-1.8,2.92-2.4,1.28-.59,2.83-.89,4.67-.89,1.46,0,2.74,.2,3.83,.59,1.09,.4,2,.92,2.72,1.58,.72,.66,1.26,1.36,1.64,2.12s.57,1.49,.6,2.21c0,.17-.06,.34-.19,.5s-.32,.24-.59,.24h-.74c-.12,0-.28-.05-.47-.15-.19-.1-.3-.3-.35-.6-.15-1.24-.8-2.26-1.95-3.07s-2.65-1.21-4.48-1.21-3.34,.36-4.5,1.08c-1.17,.72-1.75,1.85-1.75,3.39,0,.99,.26,1.8,.78,2.44,.52,.63,1.34,1.19,2.46,1.67,1.12,.48,2.55,1.01,4.32,1.58,1.86,.6,3.4,1.19,4.61,1.79,1.21,.59,2.12,1.32,2.72,2.18,.6,.86,.89,1.97,.89,3.33,0,1.51-.38,2.8-1.13,3.85-.76,1.05-1.83,1.86-3.22,2.42-1.39,.56-3.05,.84-4.98,.84Z"/></g></svg>